<mxfile host="app.diagrams.net" modified="2022-03-28T20:01:43.967Z" agent="5.0 (X11)" etag="TNAtXYOaIYD9MyPPxXBg" version="16.6.4" type="github">
  <diagram id="R2lEEEUBdFMjLlhIrx00" name="Page-1">
    <mxGraphModel dx="868" dy="481" grid="1" gridSize="10" guides="1" tooltips="1" connect="1" arrows="1" fold="1" page="1" pageScale="1" pageWidth="850" pageHeight="1100" math="0" shadow="0" extFonts="Permanent Marker^https://fonts.googleapis.com/css?family=Permanent+Marker">
      <root>
        <mxCell id="0" />
        <mxCell id="1" parent="0" />
        <mxCell id="ZXifpjUcbngJi2hG1lOk-1" value="Estética" style="rounded=0;whiteSpace=wrap;html=1;" vertex="1" parent="1">
          <mxGeometry x="320" y="180" width="90" height="30" as="geometry" />
        </mxCell>
        <mxCell id="ZXifpjUcbngJi2hG1lOk-16" style="edgeStyle=orthogonalEdgeStyle;rounded=0;orthogonalLoop=1;jettySize=auto;html=1;entryX=0.75;entryY=0;entryDx=0;entryDy=0;endArrow=none;endFill=0;" edge="1" parent="1" source="ZXifpjUcbngJi2hG1lOk-2" target="ZXifpjUcbngJi2hG1lOk-1">
          <mxGeometry relative="1" as="geometry" />
        </mxCell>
        <mxCell id="ZXifpjUcbngJi2hG1lOk-2" value="Nombre" style="ellipse;whiteSpace=wrap;html=1;" vertex="1" parent="1">
          <mxGeometry x="395" y="120" width="60" height="30" as="geometry" />
        </mxCell>
        <mxCell id="ZXifpjUcbngJi2hG1lOk-15" style="edgeStyle=orthogonalEdgeStyle;rounded=0;orthogonalLoop=1;jettySize=auto;html=1;entryX=0;entryY=0.5;entryDx=0;entryDy=0;endArrow=none;endFill=0;" edge="1" parent="1" source="ZXifpjUcbngJi2hG1lOk-3" target="ZXifpjUcbngJi2hG1lOk-1">
          <mxGeometry relative="1" as="geometry" />
        </mxCell>
        <mxCell id="ZXifpjUcbngJi2hG1lOk-3" value="Dirección" style="ellipse;whiteSpace=wrap;html=1;" vertex="1" parent="1">
          <mxGeometry x="260" y="130" width="60" height="30" as="geometry" />
        </mxCell>
        <mxCell id="ZXifpjUcbngJi2hG1lOk-14" style="edgeStyle=orthogonalEdgeStyle;rounded=0;orthogonalLoop=1;jettySize=auto;html=1;entryX=0;entryY=0.867;entryDx=0;entryDy=0;entryPerimeter=0;endArrow=none;endFill=0;" edge="1" parent="1" source="ZXifpjUcbngJi2hG1lOk-4" target="ZXifpjUcbngJi2hG1lOk-3">
          <mxGeometry relative="1" as="geometry" />
        </mxCell>
        <mxCell id="ZXifpjUcbngJi2hG1lOk-4" value="Estado" style="ellipse;whiteSpace=wrap;html=1;" vertex="1" parent="1">
          <mxGeometry x="180" y="120" width="60" height="30" as="geometry" />
        </mxCell>
        <mxCell id="ZXifpjUcbngJi2hG1lOk-13" style="edgeStyle=orthogonalEdgeStyle;rounded=0;orthogonalLoop=1;jettySize=auto;html=1;exitX=1;exitY=1;exitDx=0;exitDy=0;entryX=0.283;entryY=0.033;entryDx=0;entryDy=0;entryPerimeter=0;endArrow=none;endFill=0;" edge="1" parent="1" source="ZXifpjUcbngJi2hG1lOk-5" target="ZXifpjUcbngJi2hG1lOk-3">
          <mxGeometry relative="1" as="geometry" />
        </mxCell>
        <mxCell id="ZXifpjUcbngJi2hG1lOk-5" value="Calle" style="ellipse;whiteSpace=wrap;html=1;" vertex="1" parent="1">
          <mxGeometry x="210" y="80" width="50" height="30" as="geometry" />
        </mxCell>
        <mxCell id="ZXifpjUcbngJi2hG1lOk-12" style="edgeStyle=orthogonalEdgeStyle;rounded=0;orthogonalLoop=1;jettySize=auto;html=1;entryX=0.5;entryY=0;entryDx=0;entryDy=0;endArrow=none;endFill=0;" edge="1" parent="1" source="ZXifpjUcbngJi2hG1lOk-6" target="ZXifpjUcbngJi2hG1lOk-3">
          <mxGeometry relative="1" as="geometry" />
        </mxCell>
        <mxCell id="ZXifpjUcbngJi2hG1lOk-6" value="Número" style="ellipse;whiteSpace=wrap;html=1;" vertex="1" parent="1">
          <mxGeometry x="265" y="60" width="50" height="30" as="geometry" />
        </mxCell>
        <mxCell id="ZXifpjUcbngJi2hG1lOk-11" style="edgeStyle=orthogonalEdgeStyle;rounded=0;orthogonalLoop=1;jettySize=auto;html=1;entryX=1;entryY=0.5;entryDx=0;entryDy=0;endArrow=none;endFill=0;" edge="1" parent="1" source="ZXifpjUcbngJi2hG1lOk-7" target="ZXifpjUcbngJi2hG1lOk-3">
          <mxGeometry relative="1" as="geometry" />
        </mxCell>
        <mxCell id="ZXifpjUcbngJi2hG1lOk-7" value="Código Postal" style="ellipse;whiteSpace=wrap;html=1;" vertex="1" parent="1">
          <mxGeometry x="315" y="80" width="70" height="40" as="geometry" />
        </mxCell>
        <mxCell id="ZXifpjUcbngJi2hG1lOk-17" style="edgeStyle=orthogonalEdgeStyle;rounded=0;orthogonalLoop=1;jettySize=auto;html=1;entryX=1;entryY=0.5;entryDx=0;entryDy=0;endArrow=none;endFill=0;" edge="1" parent="1" source="ZXifpjUcbngJi2hG1lOk-8" target="ZXifpjUcbngJi2hG1lOk-1">
          <mxGeometry relative="1" as="geometry" />
        </mxCell>
        <mxCell id="ZXifpjUcbngJi2hG1lOk-8" value="Num de consultorios" style="ellipse;whiteSpace=wrap;html=1;" vertex="1" parent="1">
          <mxGeometry x="430" y="160" width="80" height="40" as="geometry" />
        </mxCell>
      </root>
    </mxGraphModel>
  </diagram>
</mxfile>
